# Blender v2.82 (sub 7) OBJ File: ''
# www.blender.org
mtllib untitled.mtl
o Cube
v 2.854506 0.074407 -0.490293
v 2.854506 -0.074407 -0.490293
v 2.550526 0.074407 1.372374
v 2.550526 -0.074407 1.372374
v -2.550526 0.074407 -1.372374
v -2.550526 -0.074407 -1.372374
v -2.854506 0.074407 0.490293
v -2.854506 -0.074407 0.490293
vt 0.625000 0.500000
vt 0.875000 0.500000
vt 0.875000 0.750000
vt 0.625000 0.750000
vt 0.375000 0.750000
vt 0.625000 1.000000
vt 0.375000 1.000000
vt 0.375000 0.000000
vt 0.625000 0.000000
vt 0.625000 0.250000
vt 0.375000 0.250000
vt 0.125000 0.500000
vt 0.375000 0.500000
vt 0.125000 0.750000
vn 0.0000 1.0000 0.0000
vn -0.1611 0.0000 0.9869
vn -0.9869 0.0000 -0.1611
vn 0.0000 -1.0000 0.0000
vn 0.9869 0.0000 0.1611
vn 0.1611 0.0000 -0.9869
usemtl Material
s off
f 1/1/1 5/2/1 7/3/1 3/4/1
f 4/5/2 3/4/2 7/6/2 8/7/2
f 8/8/3 7/9/3 5/10/3 6/11/3
f 6/12/4 2/13/4 4/5/4 8/14/4
f 2/13/5 1/1/5 3/4/5 4/5/5
f 6/11/6 5/10/6 1/1/6 2/13/6
o Cube.001
v 2.894236 0.074407 -2.363976
v 2.894236 -0.074407 -2.363976
v 2.347223 0.074407 -0.557680
v 2.347223 -0.074407 -0.557680
v -2.347223 0.074407 -3.951286
v -2.347223 -0.074407 -3.951286
v -2.894236 0.074407 -2.144990
v -2.894236 -0.074407 -2.144990
vt 0.625000 0.500000
vt 0.875000 0.500000
vt 0.875000 0.750000
vt 0.625000 0.750000
vt 0.375000 0.750000
vt 0.625000 1.000000
vt 0.375000 1.000000
vt 0.375000 0.000000
vt 0.625000 0.000000
vt 0.625000 0.250000
vt 0.375000 0.250000
vt 0.125000 0.500000
vt 0.375000 0.500000
vt 0.125000 0.750000
vn 0.0000 1.0000 0.0000
vn -0.2898 0.0000 0.9571
vn -0.9571 0.0000 -0.2898
vn 0.0000 -1.0000 0.0000
vn 0.9571 0.0000 0.2898
vn 0.2898 0.0000 -0.9571
usemtl Material.001
s off
f 9/15/7 13/16/7 15/17/7 11/18/7
f 12/19/8 11/18/8 15/20/8 16/21/8
f 16/22/9 15/23/9 13/24/9 14/25/9
f 14/26/10 10/27/10 12/19/10 16/28/10
f 10/27/11 9/15/11 11/18/11 12/19/11
f 14/25/12 13/24/12 9/15/12 10/27/12
o Cube.002
v 2.738926 0.074407 -5.502770
v 2.738926 -0.074407 -5.502770
v 2.737608 0.074407 -3.615463
v 2.737608 -0.074407 -3.615463
v -2.737608 0.074407 -5.506593
v -2.737608 -0.074407 -5.506593
v -2.738926 0.074407 -3.619286
v -2.738926 -0.074407 -3.619286
vt 0.625000 0.500000
vt 0.875000 0.500000
vt 0.875000 0.750000
vt 0.625000 0.750000
vt 0.375000 0.750000
vt 0.625000 1.000000
vt 0.375000 1.000000
vt 0.375000 0.000000
vt 0.625000 0.000000
vt 0.625000 0.250000
vt 0.375000 0.250000
vt 0.125000 0.500000
vt 0.375000 0.500000
vt 0.125000 0.750000
vn 0.0000 1.0000 0.0000
vn -0.0007 0.0000 1.0000
vn -1.0000 0.0000 -0.0007
vn 0.0000 -1.0000 0.0000
vn 1.0000 0.0000 0.0007
vn 0.0007 0.0000 -1.0000
usemtl Material.002
s off
f 17/29/13 21/30/13 23/31/13 19/32/13
f 20/33/14 19/32/14 23/34/14 24/35/14
f 24/36/15 23/37/15 21/38/15 22/39/15
f 22/40/16 18/41/16 20/33/16 24/42/16
f 18/41/17 17/29/17 19/32/17 20/33/17
f 22/39/18 21/38/18 17/29/18 18/41/18
o Cube.003
v 2.854506 0.074407 -7.605412
v 2.854506 -0.074407 -7.605412
v 2.550526 0.074407 -5.742746
v 2.550526 -0.074407 -5.742746
v -2.550526 0.074407 -8.487494
v -2.550526 -0.074407 -8.487494
v -2.854506 0.074407 -6.624827
v -2.854506 -0.074407 -6.624827
vt 0.625000 0.500000
vt 0.875000 0.500000
vt 0.875000 0.750000
vt 0.625000 0.750000
vt 0.375000 0.750000
vt 0.625000 1.000000
vt 0.375000 1.000000
vt 0.375000 0.000000
vt 0.625000 0.000000
vt 0.625000 0.250000
vt 0.375000 0.250000
vt 0.125000 0.500000
vt 0.375000 0.500000
vt 0.125000 0.750000
vn 0.0000 1.0000 0.0000
vn -0.1611 0.0000 0.9869
vn -0.9869 0.0000 -0.1611
vn 0.0000 -1.0000 0.0000
vn 0.9869 0.0000 0.1611
vn 0.1611 0.0000 -0.9869
usemtl Material.003
s off
f 25/43/19 29/44/19 31/45/19 27/46/19
f 28/47/20 27/46/20 31/48/20 32/49/20
f 32/50/21 31/51/21 29/52/21 30/53/21
f 30/54/22 26/55/22 28/47/22 32/56/22
f 26/55/23 25/43/23 27/46/23 28/47/23
f 30/53/24 29/52/24 25/43/24 26/55/24
o Cube.004
v 2.721216 0.074407 1.121108
v 2.721216 -0.074407 1.121108
v 2.754469 0.074407 3.008122
v 2.754469 -0.074407 3.008122
v -2.754469 0.074407 1.217599
v -2.754469 -0.074407 1.217599
v -2.721216 0.074407 3.104614
v -2.721216 -0.074407 3.104614
vt 0.625000 0.500000
vt 0.875000 0.500000
vt 0.875000 0.750000
vt 0.625000 0.750000
vt 0.375000 0.750000
vt 0.625000 1.000000
vt 0.375000 1.000000
vt 0.375000 0.000000
vt 0.625000 0.000000
vt 0.625000 0.250000
vt 0.375000 0.250000
vt 0.125000 0.500000
vt 0.375000 0.500000
vt 0.125000 0.750000
vn 0.0000 1.0000 0.0000
vn 0.0176 0.0000 0.9998
vn -0.9998 0.0000 0.0176
vn 0.0000 -1.0000 0.0000
vn 0.9998 0.0000 -0.0176
vn -0.0176 0.0000 -0.9998
usemtl Material.004
s off
f 33/57/25 37/58/25 39/59/25 35/60/25
f 36/61/26 35/60/26 39/62/26 40/63/26
f 40/64/27 39/65/27 37/66/27 38/67/27
f 38/68/28 34/69/28 36/61/28 40/70/28
f 34/69/29 33/57/29 35/60/29 36/61/29
f 38/67/30 37/66/30 33/57/30 34/69/30
o Cube.005
v 2.854506 0.074407 3.800851
v 2.854506 -0.074407 3.800851
v 2.550526 0.074407 5.663517
v 2.550526 -0.074407 5.663517
v -2.550526 0.074407 2.918770
v -2.550526 -0.074407 2.918770
v -2.854506 0.074407 4.781436
v -2.854506 -0.074407 4.781436
vt 0.625000 0.500000
vt 0.875000 0.500000
vt 0.875000 0.750000
vt 0.625000 0.750000
vt 0.375000 0.750000
vt 0.625000 1.000000
vt 0.375000 1.000000
vt 0.375000 0.000000
vt 0.625000 0.000000
vt 0.625000 0.250000
vt 0.375000 0.250000
vt 0.125000 0.500000
vt 0.375000 0.500000
vt 0.125000 0.750000
vn 0.0000 1.0000 0.0000
vn -0.1611 0.0000 0.9869
vn -0.9869 0.0000 -0.1611
vn 0.0000 -1.0000 0.0000
vn 0.9869 0.0000 0.1611
vn 0.1611 0.0000 -0.9869
usemtl Material.005
s off
f 41/71/31 45/72/31 47/73/31 43/74/31
f 44/75/32 43/74/32 47/76/32 48/77/32
f 48/78/33 47/79/33 45/80/33 46/81/33
f 46/82/34 42/83/34 44/75/34 48/84/34
f 42/83/35 41/71/35 43/74/35 44/75/35
f 46/81/36 45/80/36 41/71/36 42/83/36
o Cube.007
v 2.786613 0.074407 5.731855
v 2.786613 -0.074407 5.731855
v 2.681408 0.074407 7.616228
v 2.681408 -0.074407 7.616228
v -2.681408 0.074407 5.426575
v -2.681408 -0.074407 5.426575
v -2.786613 0.074407 7.310947
v -2.786613 -0.074407 7.310947
vt 0.625000 0.500000
vt 0.875000 0.500000
vt 0.875000 0.750000
vt 0.625000 0.750000
vt 0.375000 0.750000
vt 0.625000 1.000000
vt 0.375000 1.000000
vt 0.375000 0.000000
vt 0.625000 0.000000
vt 0.625000 0.250000
vt 0.375000 0.250000
vt 0.125000 0.500000
vt 0.375000 0.500000
vt 0.125000 0.750000
vn 0.0000 1.0000 0.0000
vn -0.0557 0.0000 0.9984
vn -0.9984 0.0000 -0.0557
vn 0.0000 -1.0000 0.0000
vn 0.9984 0.0000 0.0557
vn 0.0557 0.0000 -0.9984
usemtl Material.007
s off
f 49/85/37 53/86/37 55/87/37 51/88/37
f 52/89/38 51/88/38 55/90/38 56/91/38
f 56/92/39 55/93/39 53/94/39 54/95/39
f 54/96/40 50/97/40 52/89/40 56/98/40
f 50/97/41 49/85/41 51/88/41 52/89/41
f 54/95/42 53/94/42 49/85/42 50/97/42
o Cylinder
v -3.041234 0.300000 -9.314639
v -3.041234 0.300000 8.380607
v -2.982707 0.294236 -9.314639
v -2.982707 0.294235 8.380607
v -2.926429 0.277164 -9.314639
v -2.926429 0.277163 8.380607
v -2.874563 0.249441 -9.314639
v -2.874563 0.249441 8.380607
v -2.829102 0.212132 -9.314639
v -2.829102 0.212132 8.380607
v -2.791793 0.166671 -9.314639
v -2.791793 0.166671 8.380607
v -2.764070 0.114805 -9.314639
v -2.764070 0.114805 8.380607
v -2.746998 0.058527 -9.314639
v -2.746998 0.058527 8.380607
v -2.741234 0.000000 -9.314639
v -2.741234 -0.000000 8.380607
v -2.746998 -0.058527 -9.314639
v -2.746998 -0.058527 8.380607
v -2.764070 -0.114805 -9.314639
v -2.764070 -0.114805 8.380607
v -2.791793 -0.166671 -9.314639
v -2.791793 -0.166671 8.380607
v -2.829102 -0.212132 -9.314639
v -2.829102 -0.212132 8.380607
v -2.874563 -0.249441 -9.314639
v -2.874563 -0.249441 8.380607
v -2.926429 -0.277164 -9.314639
v -2.926429 -0.277164 8.380607
v -2.982707 -0.294235 -9.314639
v -2.982707 -0.294236 8.380607
v -3.041234 -0.300000 -9.314639
v -3.041234 -0.300000 8.380607
v -3.099761 -0.294235 -9.314639
v -3.099761 -0.294236 8.380607
v -3.156039 -0.277163 -9.314639
v -3.156039 -0.277164 8.380607
v -3.207905 -0.249440 -9.314639
v -3.207905 -0.249441 8.380607
v -3.253366 -0.212132 -9.314639
v -3.253366 -0.212132 8.380607
v -3.290675 -0.166671 -9.314639
v -3.290675 -0.166671 8.380607
v -3.318398 -0.114804 -9.314639
v -3.318398 -0.114805 8.380607
v -3.335469 -0.058526 -9.314639
v -3.335469 -0.058527 8.380607
v -3.341234 0.000001 -9.314639
v -3.341234 -0.000000 8.380607
v -3.335469 0.058528 -9.314639
v -3.335469 0.058527 8.380607
v -3.318398 0.114806 -9.314639
v -3.318398 0.114805 8.380607
v -3.290674 0.166672 -9.314639
v -3.290674 0.166671 8.380607
v -3.253366 0.212133 -9.314639
v -3.253366 0.212132 8.380607
v -3.207905 0.249442 -9.314639
v -3.207905 0.249441 8.380607
v -3.156039 0.277164 -9.314639
v -3.156039 0.277164 8.380607
v -3.099761 0.294236 -9.314639
v -3.099761 0.294235 8.380607
vt 1.000000 0.500000
vt 1.000000 1.000000
vt 0.968750 1.000000
vt 0.968750 0.500000
vt 0.937500 1.000000
vt 0.937500 0.500000
vt 0.906250 1.000000
vt 0.906250 0.500000
vt 0.875000 1.000000
vt 0.875000 0.500000
vt 0.843750 1.000000
vt 0.843750 0.500000
vt 0.812500 1.000000
vt 0.812500 0.500000
vt 0.781250 1.000000
vt 0.781250 0.500000
vt 0.750000 1.000000
vt 0.750000 0.500000
vt 0.718750 1.000000
vt 0.718750 0.500000
vt 0.687500 1.000000
vt 0.687500 0.500000
vt 0.656250 1.000000
vt 0.656250 0.500000
vt 0.625000 1.000000
vt 0.625000 0.500000
vt 0.593750 1.000000
vt 0.593750 0.500000
vt 0.562500 1.000000
vt 0.562500 0.500000
vt 0.531250 1.000000
vt 0.531250 0.500000
vt 0.500000 1.000000
vt 0.500000 0.500000
vt 0.468750 1.000000
vt 0.468750 0.500000
vt 0.437500 1.000000
vt 0.437500 0.500000
vt 0.406250 1.000000
vt 0.406250 0.500000
vt 0.375000 1.000000
vt 0.375000 0.500000
vt 0.343750 1.000000
vt 0.343750 0.500000
vt 0.312500 1.000000
vt 0.312500 0.500000
vt 0.281250 1.000000
vt 0.281250 0.500000
vt 0.250000 1.000000
vt 0.250000 0.500000
vt 0.218750 1.000000
vt 0.218750 0.500000
vt 0.187500 1.000000
vt 0.187500 0.500000
vt 0.156250 1.000000
vt 0.156250 0.500000
vt 0.125000 1.000000
vt 0.125000 0.500000
vt 0.093750 1.000000
vt 0.093750 0.500000
vt 0.062500 1.000000
vt 0.062500 0.500000
vt 0.296822 0.485388
vt 0.250000 0.490000
vt 0.203179 0.485389
vt 0.158156 0.471731
vt 0.116663 0.449553
vt 0.080295 0.419706
vt 0.050447 0.383337
vt 0.028269 0.341844
vt 0.014612 0.296822
vt 0.010000 0.250000
vt 0.014611 0.203179
vt 0.028269 0.158156
vt 0.050447 0.116663
vt 0.080294 0.080294
vt 0.116663 0.050447
vt 0.158156 0.028269
vt 0.203178 0.014612
vt 0.250000 0.010000
vt 0.296822 0.014612
vt 0.341844 0.028269
vt 0.383337 0.050447
vt 0.419706 0.080294
vt 0.449553 0.116663
vt 0.471731 0.158156
vt 0.485388 0.203178
vt 0.490000 0.250000
vt 0.485388 0.296822
vt 0.471731 0.341844
vt 0.449553 0.383337
vt 0.419706 0.419706
vt 0.383337 0.449553
vt 0.341844 0.471731
vt 0.031250 1.000000
vt 0.031250 0.500000
vt 0.000000 1.000000
vt 0.000000 0.500000
vt 0.750000 0.490000
vt 0.796822 0.485388
vt 0.841844 0.471731
vt 0.883337 0.449553
vt 0.919706 0.419706
vt 0.949553 0.383337
vt 0.971731 0.341844
vt 0.985388 0.296822
vt 0.990000 0.250000
vt 0.985388 0.203178
vt 0.971731 0.158156
vt 0.949553 0.116663
vt 0.919706 0.080294
vt 0.883337 0.050447
vt 0.841844 0.028269
vt 0.796822 0.014612
vt 0.750000 0.010000
vt 0.703178 0.014612
vt 0.658156 0.028269
vt 0.616663 0.050447
vt 0.580294 0.080294
vt 0.550447 0.116663
vt 0.528269 0.158156
vt 0.514611 0.203179
vt 0.510000 0.250000
vt 0.514612 0.296822
vt 0.528269 0.341844
vt 0.550447 0.383337
vt 0.580295 0.419706
vt 0.616663 0.449553
vt 0.658156 0.471731
vt 0.703179 0.485389
vn 0.0980 0.9952 0.0000
vn 0.2903 0.9569 0.0000
vn 0.4714 0.8819 0.0000
vn 0.6344 0.7730 0.0000
vn 0.7730 0.6344 0.0000
vn 0.8819 0.4714 0.0000
vn 0.9569 0.2903 0.0000
vn 0.9952 0.0980 0.0000
vn 0.9952 -0.0980 -0.0000
vn 0.9569 -0.2903 -0.0000
vn 0.8819 -0.4714 -0.0000
vn 0.7730 -0.6344 -0.0000
vn 0.6344 -0.7730 -0.0000
vn 0.4714 -0.8819 -0.0000
vn 0.2903 -0.9569 -0.0000
vn 0.0980 -0.9952 -0.0000
vn -0.0980 -0.9952 -0.0000
vn -0.2903 -0.9569 -0.0000
vn -0.4714 -0.8819 -0.0000
vn -0.6344 -0.7730 -0.0000
vn -0.7730 -0.6344 -0.0000
vn -0.8819 -0.4714 -0.0000
vn -0.9569 -0.2903 -0.0000
vn -0.9952 -0.0980 -0.0000
vn -0.9952 0.0980 0.0000
vn -0.9569 0.2903 0.0000
vn -0.8819 0.4714 0.0000
vn -0.7730 0.6344 0.0000
vn -0.6344 0.7730 0.0000
vn -0.4714 0.8819 0.0000
vn -0.0000 0.0000 1.0000
vn -0.2903 0.9569 0.0000
vn -0.0980 0.9952 0.0000
vn 0.0000 0.0000 -1.0000
usemtl None
s off
f 57/99/43 58/100/43 60/101/43 59/102/43
f 59/102/44 60/101/44 62/103/44 61/104/44
f 61/104/45 62/103/45 64/105/45 63/106/45
f 63/106/46 64/105/46 66/107/46 65/108/46
f 65/108/47 66/107/47 68/109/47 67/110/47
f 67/110/48 68/109/48 70/111/48 69/112/48
f 69/112/49 70/111/49 72/113/49 71/114/49
f 71/114/50 72/113/50 74/115/50 73/116/50
f 73/116/51 74/115/51 76/117/51 75/118/51
f 75/118/52 76/117/52 78/119/52 77/120/52
f 77/120/53 78/119/53 80/121/53 79/122/53
f 79/122/54 80/121/54 82/123/54 81/124/54
f 81/124/55 82/123/55 84/125/55 83/126/55
f 83/126/56 84/125/56 86/127/56 85/128/56
f 85/128/57 86/127/57 88/129/57 87/130/57
f 87/130/58 88/129/58 90/131/58 89/132/58
f 89/132/59 90/131/59 92/133/59 91/134/59
f 91/134/60 92/133/60 94/135/60 93/136/60
f 93/136/61 94/135/61 96/137/61 95/138/61
f 95/138/62 96/137/62 98/139/62 97/140/62
f 97/140/63 98/139/63 100/141/63 99/142/63
f 99/142/64 100/141/64 102/143/64 101/144/64
f 101/144/65 102/143/65 104/145/65 103/146/65
f 103/146/66 104/145/66 106/147/66 105/148/66
f 105/148/67 106/147/67 108/149/67 107/150/67
f 107/150/68 108/149/68 110/151/68 109/152/68
f 109/152/69 110/151/69 112/153/69 111/154/69
f 111/154/70 112/153/70 114/155/70 113/156/70
f 113/156/71 114/155/71 116/157/71 115/158/71
f 115/158/72 116/157/72 118/159/72 117/160/72
f 60/161/73 58/162/73 120/163/73 118/164/73 116/165/73 114/166/73 112/167/73 110/168/73 108/169/73 106/170/73 104/171/73 102/172/73 100/173/73 98/174/73 96/175/73 94/176/73 92/177/73 90/178/73 88/179/73 86/180/73 84/181/73 82/182/73 80/183/73 78/184/73 76/185/73 74/186/73 72/187/73 70/188/73 68/189/73 66/190/73 64/191/73 62/192/73
f 117/160/74 118/159/74 120/193/74 119/194/74
f 119/194/75 120/193/75 58/195/75 57/196/75
f 57/197/76 59/198/76 61/199/76 63/200/76 65/201/76 67/202/76 69/203/76 71/204/76 73/205/76 75/206/76 77/207/76 79/208/76 81/209/76 83/210/76 85/211/76 87/212/76 89/213/76 91/214/76 93/215/76 95/216/76 97/217/76 99/218/76 101/219/76 103/220/76 105/221/76 107/222/76 109/223/76 111/224/76 113/225/76 115/226/76 117/227/76 119/228/76
o Cylinder.001
v 2.980398 0.300000 -9.093474
v 2.980398 0.300000 8.601771
v 3.038925 0.294236 -9.093474
v 3.038925 0.294235 8.601771
v 3.095203 0.277164 -9.093474
v 3.095203 0.277163 8.601771
v 3.147069 0.249441 -9.093474
v 3.147069 0.249441 8.601771
v 3.192530 0.212132 -9.093474
v 3.192530 0.212132 8.601771
v 3.229839 0.166671 -9.093474
v 3.229839 0.166671 8.601771
v 3.257562 0.114805 -9.093474
v 3.257562 0.114805 8.601771
v 3.274633 0.058527 -9.093474
v 3.274633 0.058527 8.601771
v 3.280398 0.000000 -9.093474
v 3.280398 -0.000000 8.601771
v 3.274634 -0.058527 -9.093474
v 3.274634 -0.058527 8.601771
v 3.257562 -0.114805 -9.093474
v 3.257562 -0.114805 8.601771
v 3.229839 -0.166671 -9.093474
v 3.229839 -0.166671 8.601771
v 3.192530 -0.212132 -9.093474
v 3.192530 -0.212132 8.601771
v 3.147069 -0.249441 -9.093474
v 3.147069 -0.249441 8.601771
v 3.095203 -0.277164 -9.093474
v 3.095203 -0.277164 8.601771
v 3.038925 -0.294235 -9.093474
v 3.038925 -0.294236 8.601771
v 2.980398 -0.300000 -9.093474
v 2.980398 -0.300000 8.601771
v 2.921871 -0.294235 -9.093474
v 2.921871 -0.294236 8.601771
v 2.865593 -0.277163 -9.093474
v 2.865593 -0.277164 8.601771
v 2.813727 -0.249440 -9.093474
v 2.813727 -0.249441 8.601771
v 2.768266 -0.212132 -9.093474
v 2.768266 -0.212132 8.601771
v 2.730957 -0.166671 -9.093474
v 2.730957 -0.166671 8.601771
v 2.703234 -0.114804 -9.093474
v 2.703234 -0.114805 8.601771
v 2.686162 -0.058526 -9.093474
v 2.686162 -0.058527 8.601771
v 2.680398 0.000001 -9.093474
v 2.680398 -0.000000 8.601771
v 2.686162 0.058528 -9.093474
v 2.686162 0.058527 8.601771
v 2.703234 0.114806 -9.093474
v 2.703234 0.114805 8.601771
v 2.730957 0.166672 -9.093474
v 2.730957 0.166671 8.601771
v 2.768266 0.212133 -9.093474
v 2.768266 0.212132 8.601771
v 2.813727 0.249442 -9.093474
v 2.813727 0.249441 8.601771
v 2.865593 0.277164 -9.093474
v 2.865593 0.277164 8.601771
v 2.921871 0.294236 -9.093474
v 2.921871 0.294235 8.601771
vt 1.000000 0.500000
vt 1.000000 1.000000
vt 0.968750 1.000000
vt 0.968750 0.500000
vt 0.937500 1.000000
vt 0.937500 0.500000
vt 0.906250 1.000000
vt 0.906250 0.500000
vt 0.875000 1.000000
vt 0.875000 0.500000
vt 0.843750 1.000000
vt 0.843750 0.500000
vt 0.812500 1.000000
vt 0.812500 0.500000
vt 0.781250 1.000000
vt 0.781250 0.500000
vt 0.750000 1.000000
vt 0.750000 0.500000
vt 0.718750 1.000000
vt 0.718750 0.500000
vt 0.687500 1.000000
vt 0.687500 0.500000
vt 0.656250 1.000000
vt 0.656250 0.500000
vt 0.625000 1.000000
vt 0.625000 0.500000
vt 0.593750 1.000000
vt 0.593750 0.500000
vt 0.562500 1.000000
vt 0.562500 0.500000
vt 0.531250 1.000000
vt 0.531250 0.500000
vt 0.500000 1.000000
vt 0.500000 0.500000
vt 0.468750 1.000000
vt 0.468750 0.500000
vt 0.437500 1.000000
vt 0.437500 0.500000
vt 0.406250 1.000000
vt 0.406250 0.500000
vt 0.375000 1.000000
vt 0.375000 0.500000
vt 0.343750 1.000000
vt 0.343750 0.500000
vt 0.312500 1.000000
vt 0.312500 0.500000
vt 0.281250 1.000000
vt 0.281250 0.500000
vt 0.250000 1.000000
vt 0.250000 0.500000
vt 0.218750 1.000000
vt 0.218750 0.500000
vt 0.187500 1.000000
vt 0.187500 0.500000
vt 0.156250 1.000000
vt 0.156250 0.500000
vt 0.125000 1.000000
vt 0.125000 0.500000
vt 0.093750 1.000000
vt 0.093750 0.500000
vt 0.062500 1.000000
vt 0.062500 0.500000
vt 0.296822 0.485388
vt 0.250000 0.490000
vt 0.203179 0.485389
vt 0.158156 0.471731
vt 0.116663 0.449553
vt 0.080295 0.419706
vt 0.050447 0.383337
vt 0.028269 0.341844
vt 0.014612 0.296822
vt 0.010000 0.250000
vt 0.014611 0.203179
vt 0.028269 0.158156
vt 0.050447 0.116663
vt 0.080294 0.080294
vt 0.116663 0.050447
vt 0.158156 0.028269
vt 0.203178 0.014612
vt 0.250000 0.010000
vt 0.296822 0.014612
vt 0.341844 0.028269
vt 0.383337 0.050447
vt 0.419706 0.080294
vt 0.449553 0.116663
vt 0.471731 0.158156
vt 0.485388 0.203178
vt 0.490000 0.250000
vt 0.485388 0.296822
vt 0.471731 0.341844
vt 0.449553 0.383337
vt 0.419706 0.419706
vt 0.383337 0.449553
vt 0.341844 0.471731
vt 0.031250 1.000000
vt 0.031250 0.500000
vt 0.000000 1.000000
vt 0.000000 0.500000
vt 0.750000 0.490000
vt 0.796822 0.485388
vt 0.841844 0.471731
vt 0.883337 0.449553
vt 0.919706 0.419706
vt 0.949553 0.383337
vt 0.971731 0.341844
vt 0.985388 0.296822
vt 0.990000 0.250000
vt 0.985388 0.203178
vt 0.971731 0.158156
vt 0.949553 0.116663
vt 0.919706 0.080294
vt 0.883337 0.050447
vt 0.841844 0.028269
vt 0.796822 0.014612
vt 0.750000 0.010000
vt 0.703178 0.014612
vt 0.658156 0.028269
vt 0.616663 0.050447
vt 0.580294 0.080294
vt 0.550447 0.116663
vt 0.528269 0.158156
vt 0.514611 0.203179
vt 0.510000 0.250000
vt 0.514612 0.296822
vt 0.528269 0.341844
vt 0.550447 0.383337
vt 0.580295 0.419706
vt 0.616663 0.449553
vt 0.658156 0.471731
vt 0.703179 0.485389
vn 0.0980 0.9952 0.0000
vn 0.2903 0.9569 0.0000
vn 0.4714 0.8819 0.0000
vn 0.6344 0.7730 0.0000
vn 0.7730 0.6344 0.0000
vn 0.8819 0.4714 0.0000
vn 0.9569 0.2903 0.0000
vn 0.9952 0.0980 0.0000
vn 0.9952 -0.0980 -0.0000
vn 0.9569 -0.2903 -0.0000
vn 0.8819 -0.4714 -0.0000
vn 0.7730 -0.6344 -0.0000
vn 0.6344 -0.7730 -0.0000
vn 0.4714 -0.8819 -0.0000
vn 0.2903 -0.9569 -0.0000
vn 0.0980 -0.9952 -0.0000
vn -0.0980 -0.9952 -0.0000
vn -0.2903 -0.9569 -0.0000
vn -0.4714 -0.8819 -0.0000
vn -0.6344 -0.7730 -0.0000
vn -0.7730 -0.6344 -0.0000
vn -0.8819 -0.4714 -0.0000
vn -0.9569 -0.2903 -0.0000
vn -0.9952 -0.0980 -0.0000
vn -0.9952 0.0980 0.0000
vn -0.9569 0.2903 0.0000
vn -0.8819 0.4714 0.0000
vn -0.7730 0.6344 0.0000
vn -0.6344 0.7730 0.0000
vn -0.4714 0.8819 0.0000
vn 0.0000 0.0000 1.0000
vn -0.2903 0.9569 0.0000
vn -0.0980 0.9952 0.0000
vn -0.0000 0.0000 -1.0000
usemtl None
s off
f 121/229/77 122/230/77 124/231/77 123/232/77
f 123/232/78 124/231/78 126/233/78 125/234/78
f 125/234/79 126/233/79 128/235/79 127/236/79
f 127/236/80 128/235/80 130/237/80 129/238/80
f 129/238/81 130/237/81 132/239/81 131/240/81
f 131/240/82 132/239/82 134/241/82 133/242/82
f 133/242/83 134/241/83 136/243/83 135/244/83
f 135/244/84 136/243/84 138/245/84 137/246/84
f 137/246/85 138/245/85 140/247/85 139/248/85
f 139/248/86 140/247/86 142/249/86 141/250/86
f 141/250/87 142/249/87 144/251/87 143/252/87
f 143/252/88 144/251/88 146/253/88 145/254/88
f 145/254/89 146/253/89 148/255/89 147/256/89
f 147/256/90 148/255/90 150/257/90 149/258/90
f 149/258/91 150/257/91 152/259/91 151/260/91
f 151/260/92 152/259/92 154/261/92 153/262/92
f 153/262/93 154/261/93 156/263/93 155/264/93
f 155/264/94 156/263/94 158/265/94 157/266/94
f 157/266/95 158/265/95 160/267/95 159/268/95
f 159/268/96 160/267/96 162/269/96 161/270/96
f 161/270/97 162/269/97 164/271/97 163/272/97
f 163/272/98 164/271/98 166/273/98 165/274/98
f 165/274/99 166/273/99 168/275/99 167/276/99
f 167/276/100 168/275/100 170/277/100 169/278/100
f 169/278/101 170/277/101 172/279/101 171/280/101
f 171/280/102 172/279/102 174/281/102 173/282/102
f 173/282/103 174/281/103 176/283/103 175/284/103
f 175/284/104 176/283/104 178/285/104 177/286/104
f 177/286/105 178/285/105 180/287/105 179/288/105
f 179/288/106 180/287/106 182/289/106 181/290/106
f 124/291/107 122/292/107 184/293/107 182/294/107 180/295/107 178/296/107 176/297/107 174/298/107 172/299/107 170/300/107 168/301/107 166/302/107 164/303/107 162/304/107 160/305/107 158/306/107 156/307/107 154/308/107 152/309/107 150/310/107 148/311/107 146/312/107 144/313/107 142/314/107 140/315/107 138/316/107 136/317/107 134/318/107 132/319/107 130/320/107 128/321/107 126/322/107
f 181/290/108 182/289/108 184/323/108 183/324/108
f 183/324/109 184/323/109 122/325/109 121/326/109
f 121/327/110 123/328/110 125/329/110 127/330/110 129/331/110 131/332/110 133/333/110 135/334/110 137/335/110 139/336/110 141/337/110 143/338/110 145/339/110 147/340/110 149/341/110 151/342/110 153/343/110 155/344/110 157/345/110 159/346/110 161/347/110 163/348/110 165/349/110 167/350/110 169/351/110 171/352/110 173/353/110 175/354/110 177/355/110 179/356/110 181/357/110 183/358/110
